<?xml version="1.0"?>
<svg xmlns="http://www.w3.org/2000/svg" height="512px" viewBox="0 0 512 512" width="512px" class=""><g><path d="m512 305.730469c0-18.242188-8.621094-34.496094-21.992188-44.9375 5.070313-8.515625 7.992188-18.453125 7.992188-29.0625 0-31.429688-25.570312-57-57-57h-138.164062c-5.996094 0-9.625-3.34375-11.253907-5.339844-1.628906-1.992187-4.179687-6.214844-2.984375-12.089844l17.375-85.386719c6.597656-32.417968-14.410156-64.160156-46.828125-70.757812-28.425781-5.785156-54.953125 10.445312-69.296875 42.378906l-63.398437 131.195313h-46.449219c-44.113281 0-80 35.886719-80 80v177c0 44.109375 35.886719 80 80 80h180c11.046875 0 20-8.957031 20-20 0-11.046875-8.953125-20-20-20h-89.761719c6.828125-11.777344 10.761719-25.433594 10.761719-40v-177c0-21.367188-8.4375-40.789063-22.132812-55.152344l67.125-138.902344c.089843-.1875.175781-.375.261718-.5625 3.046875-6.847656 11.574219-22.476562 24.914063-19.761719 10.808593 2.199219 17.808593 12.78125 15.609375 23.585938l-17.378906 85.386719c-3.277344 16.105469.808593 32.644531 11.207031 45.375 10.398437 12.730469 25.792969 20.03125 42.230469 20.03125h138.164062c9.375 0 17 7.625 17 17 0 9.371093-7.625 17-17 17h-29.039062c-11.046876 0-20 8.953125-20 20 0 11.042969 8.953124 20 20 20h43.039062c9.375 0 17 7.625 17 17 0 9.371093-7.625 17-17 17h-38.679688c-11.046874 0-20 8.953125-20 20 0 11.042969 8.953126 20 20 20h23.191407c9.605469 0 17.421875 7.625 17.421875 17 0 9.371093-7.816406 17-17.421875 17h-29.109375c-11.042969 0-20 8.953125-20 20 0 11.042969 8.957031 20 20 20h3.027344c8.785156 0 18.570312 6.746093 18.570312 16.429687 0 5.582032-1.675781 18.570313-17.214844 18.570313h-54.785156c-11.046875 0-20 8.953125-20 20 0 11.042969 8.953125 20 20 20h54.785156c33.152344 0 57.214844-24.632813 57.214844-58.570313 0-8.175781-1.824219-16.050781-5.265625-23.257812 17.964844-9.644532 30.199219-28.515625 30.199219-50.171875 0-10.359375-2.8125-20.074219-7.699219-28.457031 13.816406-10.410157 22.765625-26.949219 22.765625-45.542969zm-432 166c-22.054688 0-40-17.945313-40-40v-177c0-22.058594 17.945312-40 40-40h21c22.054688 0 40 17.941406 40 40v177c0 22.054687-17.945312 40-40 40zm30-50c0 11.042969-8.953125 20-20 20s-20-8.957031-20-20c0-11.046875 8.953125-20 20-20s20 8.953125 20 20zm0 0" data-original="#000000" class="active-path" data-old_color="#000000" fill="#5F6FA5"/></g> </svg>
