<svg id="Layer_1" data-name="Layer 1" xmlns="http://www.w3.org/2000/svg" xmlns:xlink="http://www.w3.org/1999/xlink" viewBox="0 0 40 40"><defs><style>.cls-1,.cls-2{fill:none;}.cls-2,.cls-3{clip-rule:evenodd;}.cls-3,.cls-5,.cls-7{fill:#b1adbc;}.cls-4{clip-path:url(#clip-path);}.cls-5{fill-rule:evenodd;}.cls-6{clip-path:url(#clip-path-2);}.cls-8{clip-path:url(#clip-path-3);}.cls-9{clip-path:url(#clip-path-4);}.cls-10{clip-path:url(#clip-path-5);}.cls-11{fill:#00d3b2;}.cls-12{clip-path:url(#clip-path-6);}.cls-13{clip-path:url(#clip-path-7);}.cls-14{fill:#b770fd;}.cls-15{clip-path:url(#clip-path-8);}.cls-16{clip-path:url(#clip-path-9);}</style><clipPath id="clip-path"><path class="cls-1" d="M-79.4-32.67A3.12,3.12,0,0,1-82.7-36a3.12,3.12,0,0,1,3.3-3.3A3.12,3.12,0,0,1-76.1-36,3.12,3.12,0,0,1-79.4-32.67ZM-83.7-49.84a3.19,3.19,0,0,1-4.62,0,3.19,3.19,0,0,1,0-4.62,3.19,3.19,0,0,1,4.62,0C-82.7-53.47-82.7-51.16-83.7-49.84Zm-18.82,20.46c-3.63,0-6.93-3.3-5.94-6.6s5.94-13.2,5.94-13.2,5,9.9,5.94,13.2S-98.88-29.37-102.51-29.37Zm-13.87-20.46a3.19,3.19,0,0,1-4.62,0,4,4,0,0,1-.33-5,3.19,3.19,0,0,1,4.62,0A4,4,0,0,1-116.38-49.84Zm-9.24,17.16a3.12,3.12,0,0,1-3.3-3.3,3.12,3.12,0,0,1,3.3-3.3,3.12,3.12,0,0,1,3.3,3.3A3.12,3.12,0,0,1-125.62-32.67Zm23.11-29.71a3.12,3.12,0,0,1,3.3,3.3,3.12,3.12,0,0,1-3.3,3.3,3.12,3.12,0,0,1-3.3-3.3A3.12,3.12,0,0,1-102.51-62.38Zm10.56-5c-22.78-7.26-43.58,9.57-43.58,31.36,0,3,.33,8.58,1.32,11.88a1.42,1.42,0,0,0,1.32,1.32h60.41a2.19,2.19,0,0,0,1.65-1.32A77,77,0,0,0-69.5-36C-69.5-50.17-78.41-63-91.95-67.33Z"/></clipPath><clipPath id="clip-path-2"><path class="cls-3" d="M634.54-33H597.31v-2.83c0-6.29,12.41-9.74,18.62-9.74s18.62,3.46,18.62,9.74ZM615.92-66.63a8.4,8.4,0,0,1,8.38,8.49,8.4,8.4,0,0,1-8.38,8.49,8.4,8.4,0,0,1-8.38-8.49A8.4,8.4,0,0,1,615.92-66.63ZM637.64-77H594.21A6.26,6.26,0,0,0,588-70.71v44a6.26,6.26,0,0,0,6.21,6.29h12.41L615.92-11l9.31-9.43h12.41a6.26,6.26,0,0,0,6.21-6.29v-44A6.26,6.26,0,0,0,637.64-77Z"/></clipPath><clipPath id="clip-path-3"><path class="cls-2" d="M77.61,4.44H70.81L68.86,2.5H59.14L57.19,4.44H50.39V8.33H77.61ZM52.33,33.61a3.9,3.9,0,0,0,3.89,3.89H71.78a3.9,3.9,0,0,0,3.89-3.89V10.28H52.33Z"/></clipPath><clipPath id="clip-path-4"><path class="cls-2" d="M20,34A14,14,0,1,1,34,20,14,14,0,0,1,20,34ZM20,2.5A17.5,17.5,0,1,0,37.5,20,17.55,17.55,0,0,0,20,2.5Zm7.35,10.15A10.07,10.07,0,0,0,20,9.5V20l-7.35,7.35a10.67,10.67,0,0,0,14.87,0A10.3,10.3,0,0,0,27.35,12.65Z"/></clipPath><clipPath id="clip-path-5"><rect class="cls-1" x="-3470.28" y="-703.33" width="3733.33" height="2100"/></clipPath><clipPath id="clip-path-6"><path class="cls-2" d="M-29.5,28.75-38.25,20l2.45-2.45,6.3,6.3,13.3-13.3L-13.75,13ZM-26,2.5A17.55,17.55,0,0,0-43.5,20,17.55,17.55,0,0,0-26,37.5,17.55,17.55,0,0,0-8.5,20,17.55,17.55,0,0,0-26,2.5Z"/></clipPath><clipPath id="clip-path-7"><rect class="cls-1" x="-3422.94" y="-703.33" width="3733.33" height="2100"/></clipPath><clipPath id="clip-path-8"><path class="cls-2" d="M-129.42,6.39l1.56-1.94h23.33l1.75,1.94ZM-116,30.69-126.69,20h6.81V16.11h7.78V20h6.81ZM-99.47,6.78l-2.72-3.31a2.51,2.51,0,0,0-2.14-1h-23.33a3.22,3.22,0,0,0-2.33,1l-2.53,3.31a4.1,4.1,0,0,0-1,2.53V33.61a3.9,3.9,0,0,0,3.89,3.89h27.22a3.9,3.9,0,0,0,3.89-3.89V9.31A4.1,4.1,0,0,0-99.47,6.78Z"/></clipPath><clipPath id="clip-path-9"><path class="cls-2" d="M-57.39,16.5-69.06,29.72l-7.78-7.78-7.78,7.78V23.89l7.78-7.78,7.78,7.78,11.67-13.22Zm0-14H-84.61A3.9,3.9,0,0,0-88.5,6.39V33.61a3.9,3.9,0,0,0,3.89,3.89h27.22a3.9,3.9,0,0,0,3.89-3.89V6.39A3.9,3.9,0,0,0-57.39,2.5Z"/></clipPath></defs><title>FFC-DESK-ICON</title><path class="cls-5" d="M634.54-33H597.31v-2.83c0-6.29,12.41-9.74,18.62-9.74s18.62,3.46,18.62,9.74ZM615.92-66.63a8.4,8.4,0,0,1,8.38,8.49,8.4,8.4,0,0,1-8.38,8.49,8.4,8.4,0,0,1-8.38-8.49A8.4,8.4,0,0,1,615.92-66.63ZM637.64-77H594.21A6.26,6.26,0,0,0,588-70.71v44a6.26,6.26,0,0,0,6.21,6.29h12.41L615.92-11l9.31-9.43h12.41a6.26,6.26,0,0,0,6.21-6.29v-44A6.26,6.26,0,0,0,637.64-77Z"/><g class="cls-6"><rect class="cls-7" x="-107.54" y="-343.54" width="3300" height="2071.38"/></g><g class="cls-9"><g class="cls-10"><rect class="cls-11" x="-7.22" y="-7.22" width="54.44" height="54.44"/></g></g><g class="cls-12"><g class="cls-13"><rect class="cls-14" x="-53.22" y="-7.22" width="54.44" height="54.44"/></g></g></svg>